Coordinates
version=1
nRows=24
nColumns=19
inDegrees=yes

Units are S.I. units (second, meters, Newtons, ...)
If the header above contains a line with 'inDegrees', this indicates whether rotational values are in degrees (yes) or radians (no).

endheader
time	pelvis_tilt	pelvis_list	pelvis_rotation	pelvis_tx	pelvis_ty	pelvis_tz	hip_flexion_r	hip_adduction_r	hip_rotation_r	knee_angle_r	knee_angle_r_beta	ankle_angle_r	hip_flexion_l	hip_adduction_l	hip_rotation_l	knee_angle_l	knee_angle_l_beta	ankle_angle_l
     11.55333333	     -3.91126434	     -4.69792937	     -4.71427461	      2.27331936	      1.02021660	      1.04089840	     22.24623005	      6.96201588	     -2.00355228	     13.88288047	      0.24230197	     -1.21270523	     -8.57141627	    -10.02425809	    -15.19771105	     42.45333463	      0.74095047	    -22.67851118
     11.56000000	     -3.44902865	     -5.24764666	     -5.10550876	      2.27336645	      1.01732597	      1.04245241	     22.06006316	      7.52853247	     -2.58314928	     15.96091142	      0.27857046	     -0.45610399	     -8.10971818	    -11.06993111	    -15.66137725	     45.33268967	      0.79120469	    -22.83379366
     11.56666667	     -2.60045399	     -5.84387928	     -5.41877761	      2.27334688	      1.01461804	      1.04382446	     21.46013390	      8.07167434	     -3.06663044	     18.26336305	      0.31875582	      0.67244790	     -8.04739559	    -12.08546033	    -15.97323411	     48.12229054	      0.83989241	    -22.59937323
     11.57333333	     -2.43137205	     -6.25428915	     -5.69699339	      2.27298842	      1.01081561	      1.04527059	     21.73742270	      8.42996557	     -3.55517381	     20.95853600	      0.36579546	      1.94194348	     -7.00327167	    -12.99114036	    -15.98330351	     51.16210169	      0.89294713	    -21.91441405
     11.58000000	     -1.74253227	     -6.65572088	     -5.84315488	      2.27240163	      1.00746825	      1.04649806	     21.38675071	      8.70547414	     -3.92340274	     23.61098911	      0.41208950	      3.48445654	     -6.46382214	    -13.85785748	    -15.96614215	     54.09179835	      0.94407998	    -20.91478814
     11.58666667	     -1.20307483	     -7.01972562	     -5.93599331	      2.27167720	      1.00389857	      1.04766721	     21.18166534	      8.95740408	     -4.14111082	     26.30402390	      0.45909182	      5.28285190	     -5.63325244	    -14.56630262	    -15.54608079	     56.97494625	      0.99440040	    -19.61358924
     11.59333333	     -0.23773376	     -7.38772278	     -5.96849928	      2.27072308	      1.00083701	      1.04869481	     20.39462411	      9.19855504	     -4.16788178	     28.78322800	      0.50236210	      7.18729138	     -5.23147556	    -15.27257446	    -15.24831480	     59.72096561	      1.04232748	    -18.12234886
     11.60000000	      0.15807712	     -7.57666648	     -5.83259168	      2.26946880	      0.99720561	      1.04957090	     20.23563894	      9.24210103	     -4.33847956	     31.23949936	      0.54523212	      9.12886282	     -3.90949948	    -15.78442939	    -14.44285184	     62.56336433	      1.09193670	    -16.43770113
     11.60666667	      0.84730319	     -7.78714935	     -5.65555769	      2.26807941	      0.99415490	      1.05034200	     19.59506581	      9.31740591	     -4.36327069	     33.37276491	      0.58246463	     11.08015026	     -2.87788840	    -16.25678021	    -13.66223461	     65.20516733	      1.13804486	    -14.71111709
     11.61333333	      1.73633647	     -7.99868611	     -5.52763152	      2.26656500	      0.99161176	      1.05113275	     18.58088850	      9.43797748	     -4.19980063	     35.19762155	      0.61431438	     13.00444962	     -2.07430954	    -16.68270354	    -12.99653374	     67.63060348	      1.18037671	    -12.98208132
     11.62000000	      2.08002187	     -8.09227468	     -5.10265980	      2.26491365	      0.98888198	      1.05156260	     18.05387497	      9.37031500	     -4.40016267	     36.75048601	      0.64141698	     14.73319234	     -0.35235583	    -16.92851806	    -11.72865710	     70.05744662	      1.22273311	    -11.30762617
     11.62666667	      2.78476885	     -8.19218490	     -4.92664167	      2.26333824	      0.98697092	      1.05218484	     16.92826459	      9.40626919	     -4.21139256	     37.95461823	      0.66243305	     16.43454545	      0.76977408	    -17.17008638	    -10.98227699	     72.11916750	      1.25871693	     -9.66924381
     11.63333333	      3.41665189	     -8.22525426	     -4.78969026	      2.26164199	      0.98548341	      1.05299289	     15.74242152	      9.45329853	     -3.83218032	     38.87773680	      0.67854451	     17.81456006	      2.00847773	    -17.29270538	    -10.21454733	     73.96390331	      1.29091364	     -8.39218943
     11.64000000	      3.25801324	     -8.28750506	     -3.98079074	      2.26032669	      0.98359939	      1.05284516	     15.22419760	      9.26856764	     -4.58907866	     39.39743907	      0.68761503	     19.16939481	      4.52782593	    -17.30578957	     -8.42524833	     75.81965712	      1.32330265	     -6.85063742
     11.64666667	      3.23872428	     -8.21340709	     -3.62306260	      2.25908391	      0.98240521	      1.05330814	     14.40440012	      9.14776566	     -4.64431029	     39.69604780	      0.69282673	     20.28762772	      6.59982249	    -17.20851864	     -7.35631963	     77.26799530	      1.34858092	     -5.58010913
     11.65333333	      3.05231590	     -8.07589695	     -3.30896079	      2.25812599	      0.98159086	      1.05383705	     13.59456828	      9.00144624	     -4.63700917	     39.71707880	      0.69319379	     21.28429004	      8.77916829	    -17.02528356	     -6.40651466	     78.42128665	      1.36870966	     -4.48813906
     11.66000000	      2.96508983	     -7.94753734	     -3.00084785	      2.25744719	      0.98143841	      1.05437530	     12.48430467	      8.88080207	     -4.60653376	     39.40468407	      0.68774148	     22.08784929	     10.72731454	    -16.84557299	     -5.62047286	     79.23994112	      1.38299787	     -3.44362759
     11.66666667	      2.75045602	     -7.73481656	     -2.76408625	      2.25705134	      0.98168115	      1.05499202	     11.36633527	      8.71060046	     -4.47785411	     38.85548564	      0.67815616	     22.74270745	     12.68654125	    -16.58469101	     -5.03378748	     79.74712132	      1.39184984	     -2.50025310
     11.67333333	      2.53737128	     -7.34897233	     -2.81800625	      2.25701177	      0.98258708	      1.05594391	     10.10774324	      8.42597775	     -4.00806857	     38.10606876	      0.66507636	     23.23032407	     14.34880222	    -16.24099401	     -4.99814401	     79.82883281	      1.39327597	     -1.66528578
     11.68000000	      2.22453461	     -6.96367749	     -2.80304768	      2.25716444	      0.98381576	      1.05673469	      8.85374195	      8.12252613	     -3.63018714	     37.16085687	      0.64857931	     23.53850238	     16.05648703	    -15.89027034	     -4.99261787	     79.65740314	      1.39028396	     -0.84869456
     11.68666667	      1.96585385	     -6.72105005	     -2.46363095	      2.25746925	      0.98541474	      1.05709710	      7.38978658	      7.95277262	     -3.48941600	     35.88838849	      0.62637054	     23.58361756	     17.77305531	    -15.50206591	     -4.58275553	     79.30823782	      1.38418987	     -0.05629924
     11.69333333	      1.54775521	     -6.22429502	     -2.54387531	      2.25804164	      0.98742455	      1.05784224	      6.07563522	      7.55286688	     -2.95583327	     34.61732775	      0.60418635	     23.44193277	     19.30523679	    -15.02557184	     -4.89149291	     78.54280446	      1.37083054	      0.66759931
     11.70000000	      1.84775070	     -5.77469018	     -2.58697409	      2.25891694	      0.99069306	      1.05844776	      3.79087068	      7.16096733	     -2.39414308	     32.95539286	      0.57518011	     23.02887699	     19.82513949	    -14.64552800	     -5.47493558	     77.37822680	      1.35050483	      1.37248774
     11.70666667	      1.36018727	     -5.21342538	     -2.74238980	      2.25990143	      0.99339884	      1.05901393	      2.43660055	      6.65638114	     -1.81952435	     31.42428694	      0.54845727	     22.36129386	     21.13566178	    -14.10071969	     -6.06394900	     76.03978162	      1.32714455	      1.97219435
